####
#
# OBJ File Generated by Meshlab
#
####
# Object rock.obj
#
# Vertices: 98
# Faces: 192
#
####
mtllib ./rock.obj.mtl

vn 0.246729 -0.812290 -0.528498
v 0.896930 -0.116701 -1.078061
vn 0.302107 -0.888064 0.346517
v 0.736314 -0.076033 1.066762
vn -0.341815 -0.625725 0.701164
v -1.052088 -0.064600 0.954513
vn 0.230037 -0.694425 -0.681804
v -0.692441 -0.114299 -0.835835
vn 0.695952 0.658822 -0.285665
v 1.303753 1.083753 -1.023542
vn 0.471249 0.579668 0.664763
v 0.444005 1.032712 1.513821
vn -0.339200 0.818378 0.463898
v -1.019775 1.174950 1.105961
vn -0.301049 0.819968 -0.486849
v -0.681862 1.180458 -1.481573
vn 0.586233 -0.808420 0.052806
v 1.045407 -0.157597 -0.147996
vn -0.211868 -0.938296 -0.273337
v 0.067265 -0.072713 -0.783522
vn 0.719905 -0.329040 -0.611121
v 1.200361 0.538245 -1.221685
vn -0.086212 -0.849402 0.520656
v -0.154563 -0.114500 1.228987
vn 0.648520 -0.032124 0.760519
v 1.155268 0.478039 1.381585
vn -0.122117 -0.991660 -0.041207
v -1.094633 -0.254018 -0.118459
vn -0.913599 0.089796 0.396578
v -1.648060 0.452009 0.853586
vn -0.479547 -0.331912 -0.812323
v -1.185727 0.481559 -1.133555
vn 0.596702 0.799123 0.073138
v 0.975431 1.246558 0.047895
vn 0.226501 0.797331 -0.559429
v 0.105258 1.126820 -1.585067
vn -0.217677 0.494394 0.841541
v -0.344848 1.152380 1.730000
vn -0.344677 0.938451 0.022530
v -1.177093 1.303243 0.009798
vn -0.071034 -0.993037 -0.093979
v -0.015789 -0.312706 -0.060242
vn -0.027307 0.998126 -0.054767
v 0.046107 1.351565 -0.253730
vn 0.963454 0.267240 -0.018425
v 1.175182 0.692469 0.169032
vn -0.189085 -0.186945 0.964001
v 0.260077 0.452640 1.365451
vn -0.999202 0.000083 0.039946
v -1.648881 0.429819 -0.064031
vn -0.117017 -0.587097 -0.801015
v -0.199824 0.336820 -1.536424
vn 0.453286 -0.878498 0.150907
v 1.008866 -0.126459 0.470257
vn 0.010687 -0.806943 -0.590532
v -0.321458 -0.060305 -0.702046
vn 0.873301 -0.027029 -0.486431
v 1.385825 0.807576 -1.181814
vn -0.233492 -0.819831 0.522837
v -0.537873 -0.057997 1.154378
vn 0.320586 0.158934 0.933791
v 0.936321 0.677546 1.426494
vn -0.043477 -0.970458 -0.237322
v -0.862364 -0.219203 -0.537108
vn -0.646867 0.288783 0.705810
v -1.281588 0.883991 1.218077
vn -0.549108 0.086439 -0.831269
v -0.974527 0.926074 -1.431442
vn 0.378489 0.884879 0.271543
v 0.808457 1.346412 0.902078
vn 0.166887 0.398263 -0.901962
v -0.174992 1.147173 -1.801163
vn -0.460627 0.772858 0.436478
v -0.610285 1.147948 1.327881
vn -0.458407 0.862693 -0.213597
v -1.356023 1.245036 -0.716849
vn 0.483017 -0.867257 -0.120669
v 1.042022 -0.190494 -0.637866
vn -0.076945 -0.842630 -0.532967
v 0.468949 -0.142859 -1.026806
vn 0.421682 -0.247656 -0.872268
v 1.081272 0.175115 -1.287556
vn 0.080518 -0.849355 0.521645
v 0.243586 -0.141476 1.191072
vn 0.449956 -0.591088 0.669443
v 1.014587 0.183491 1.312948
vn -0.276682 -0.937766 0.209863
v -1.155731 -0.217847 0.459469
vn -0.735849 -0.552512 0.391481
v -1.571341 0.110279 0.770709
vn -0.231260 -0.595073 -0.769680
v -1.063276 0.074521 -1.015607
vn 0.638082 0.768999 0.038639
v 1.231954 1.216866 -0.594471
vn 0.287402 0.799498 -0.527449
v 0.770454 1.122192 -1.299703
vn -0.086405 0.146560 0.985421
v -0.065279 1.102928 1.796044
vn -0.424015 0.890706 0.163872
v -1.176430 1.281231 0.646380
vn -0.040354 -0.998642 -0.032956
v -0.476225 -0.274043 -0.037390
vn 0.122289 -0.992381 0.015023
v 0.480423 -0.312115 -0.111060
vn -0.216431 -0.916005 -0.337777
v 0.172793 -0.188473 -0.532460
vn -0.055920 -0.987781 0.145468
v -0.106274 -0.274351 0.595963
vn -0.046748 0.996416 0.070502
v -0.198010 1.360380 0.630818
vn 0.007289 0.987239 -0.159081
v 0.062998 1.276304 -0.994314
vn 0.104733 0.994482 -0.006038
v 0.611501 1.352344 -0.290780
vn -0.043438 0.998834 -0.021074
v -0.603343 1.343584 -0.011276
vn 0.959292 0.222594 0.173813
v 1.267461 0.630730 1.008356
vn 0.985455 -0.162379 0.050122
v 1.267107 0.600208 -0.689727
vn 0.991239 -0.131927 -0.006380
v 1.268899 0.241091 -0.063884
vn 0.940549 0.338293 0.030413
v 1.050912 1.068502 0.197512
vn -0.434071 -0.329221 0.838568
v -1.043570 0.402928 1.289593
vn 0.126756 -0.032598 0.991398
v 0.667029 0.439932 1.448684
vn -0.073596 -0.184232 0.980124
v -0.135120 0.156677 1.505020
vn -0.006312 -0.522892 0.852376
v -0.066870 0.652060 1.602193
vn -0.898968 -0.340459 -0.275580
v -1.759897 0.319614 -0.724614
vn -0.993661 0.107068 0.034280
v -1.646483 0.462612 0.459024
vn -0.739437 -0.654773 -0.156542
v -1.548443 -0.153801 -0.255587
vn -0.818922 0.564900 0.101268
v -1.483055 1.068517 0.045330
vn -0.432253 -0.296764 -0.851521
v -0.775458 0.497559 -1.402503
vn 0.225906 -0.430362 -0.873931
v 0.556317 0.449266 -1.496503
vn 0.150815 0.022186 -0.988313
v 0.153226 0.839249 -1.832230
vn -0.131639 -0.849412 -0.511048
v -0.180515 0.060946 -1.233899
vn -0.085480 -0.979832 0.180615
v -0.630920 -0.226328 0.592326
vn -0.093582 0.986677 0.133083
v -0.677921 1.329703 0.698183
vn 0.752414 0.571050 0.328292
v 1.115930 1.067893 0.980967
vn -0.364653 -0.020224 0.930924
v -0.944509 0.743625 1.392342
vn -0.900746 0.371950 -0.224297
v -1.719440 0.916506 -0.699776
vn -0.109075 -0.774996 -0.622482
v -0.751048 0.149059 -1.123006
vn 0.016763 -0.846505 -0.532116
v -0.359688 -0.219676 -0.596748
vn -0.012210 -0.971928 -0.234963
v 0.548058 -0.284113 -0.657622
vn 0.122206 -0.981388 0.148130
v 0.383454 -0.298149 0.533170
vn -0.011721 0.990182 0.139289
v 0.342781 1.370886 0.863692
vn 0.178276 0.970673 -0.161282
v 0.801564 1.333314 -0.716665
vn -0.044368 0.991551 -0.121895
v -0.544178 1.290048 -0.889409
vn 0.921635 -0.360440 0.143774
v 1.347667 0.189763 0.746821
vn 0.919922 -0.291245 -0.262526
v 1.323792 0.127379 -0.856060
vn 0.993356 0.035302 0.109536
v 1.423543 0.897206 -0.707035
vn -0.326291 -0.473788 0.817960
v -0.706694 0.190636 1.346937
vn 0.149292 -0.476870 0.866203
v 0.494274 0.153436 1.399456
vn 0.114707 -0.242174 0.963428
v 0.524189 0.691410 1.410453
vn -0.467205 -0.714630 -0.520599
v -1.346437 -0.078697 -0.808084
vn -0.791371 -0.591902 0.152922
v -1.550380 0.033513 0.487642
vn -0.824697 0.505018 0.254621
v -1.434319 1.017100 0.746778
vn -0.218122 -0.181759 -0.958846
v -0.263198 0.916780 -1.716774
vn 0.426950 0.149389 -0.891850
v 0.802037 0.850318 -1.528586
vn 0.071975 -0.564798 -0.822085
v 0.512712 0.114694 -1.198383
# 98 vertices, 0 vertices normals


usemtl material_0
vt 0.058285 0.569867
vt 0.082613 0.506661
vt 0.152906 0.498683
f 30/1/30 3/2/3 44/3/44
vt 0.206316 0.378186
vt 0.155630 0.402329
vt 0.099783 0.387655
f 50/4/50 7/5/7 37/6/37
vt 0.854473 0.349296
vt 0.794976 0.248970
vt 0.870663 0.174892
f 35/7/35 6/8/6 31/9/31
vt 0.944083 0.694636
vt 0.905653 0.682602
vt 0.916733 0.604517
f 37/10/37 7/11/7 33/12/33
vt 0.336809 0.082005
vt 0.369246 0.000842
vt 0.489191 0.000000
f 79/13/79 38/14/38 8/15/8
vt 0.512673 0.310590
vt 0.481603 0.323059
vt 0.447322 0.276247
f 28/16/28 4/17/4 46/18/46
vt 0.276846 0.583529
vt 0.215363 0.578539
vt 0.223692 0.502410
f 81/19/81 51/20/51 14/21/14
vt 0.288525 0.695621
vt 0.226456 0.694739
vt 0.220811 0.635843
f 82/22/82 52/23/52 21/24/21
vt 0.149628 0.688747
vt 0.060049 0.668982
vt 0.053708 0.620010
f 83/25/83 42/26/42 12/27/12
vt 0.115533 0.299946
vt 0.042023 0.402498
vt 0.011393 0.383384
f 55/28/55 19/29/19 49/30/49
vt 0.133867 0.094672
vt 0.226136 0.127633
vt 0.165692 0.199396
f 85/31/85 56/32/56 22/33/22
vt 0.273683 0.187557
vt 0.335575 0.267841
vt 0.258354 0.321530
f 86/34/86 38/35/38 20/36/20
vt 0.422948 0.654063
vt 0.520455 0.684734
vt 0.477461 0.726331
f 87/37/87 59/38/59 13/39/13
vt 0.422729 0.459207
vt 0.529375 0.479105
vt 0.539575 0.580737
f 88/40/88 60/41/60 23/42/23
vt 0.744126 0.814485
vt 0.672331 0.787452
vt 0.683844 0.711964
f 89/43/89 47/44/47 17/45/17
vt 0.016271 0.536299
vt 0.006598 0.482318
vt 0.054401 0.402498
f 90/46/90 63/47/63 15/48/15
vt 0.855242 0.125920
vt 0.818683 0.137473
vt 0.786060 0.070157
f 64/49/64 24/50/24 65/51/65
vt 0.829103 0.182611
vt 0.720806 0.251159
vt 0.693981 0.268226
f 92/52/92 49/53/49 19/54/19
vt 0.348488 0.225548
vt 0.431026 0.176751
f 67/55/67 16/56/16 46/18/46
vt 0.821728 0.494375
vt 0.758928 0.488146
vt 0.747834 0.361119
f 68/57/68 25/58/25 69/59/69
vt 0.853441 0.628842
vt 0.844101 0.700647
vt 0.766741 0.707183
f 95/60/95 50/61/50 20/62/20
vt 0.554998 0.057463
vt 0.491069 0.166304
f 96/63/96 71/64/71 16/56/16
vt 0.661203 0.071636
vt 0.642437 0.169965
vt 0.565426 0.199969
f 97/65/97 72/66/72 26/67/26
vt 0.619708 0.321108
vt 0.560004 0.310321
vt 0.556413 0.271543
f 40/68/40 10/69/10 74/70/74
vt 0.137636 0.563411
f 75/71/75 44/3/44 14/21/14
vt 0.140662 0.629249
f 21/24/21 54/72/54 75/71/75
f 12/27/12 30/1/30 75/71/75
vt 0.155028 0.344089
f 76/73/76 37/6/37 19/29/19
vt 0.206193 0.274302
f 22/33/22 58/74/58 76/73/76
f 58/74/58 20/36/20 50/4/50
vt 0.896175 0.282885
vt 0.907061 0.133559
f 77/75/77 31/9/31 13/76/13
vt 0.622627 0.581780
vt 0.617335 0.678426
f 62/77/62 77/78/77 59/38/59
vt 0.662917 0.562066
vt 0.672331 0.661064
f 17/79/17 35/80/35 77/78/77
vt 0.949240 0.587705
vt 0.869574 0.490922
f 78/81/78 33/12/33 15/82/15
vt 0.791582 0.866218
vt 0.744126 0.821215
vt 0.752056 0.707183
f 24/83/24 66/84/66 78/85/78
vt 0.999879 0.706758
f 19/86/19 37/10/37 78/81/78
vt 0.460672 0.063535
f 67/55/67 79/13/79 34/87/34
vt 0.766456 0.640000
vt 0.672331 0.596657
vt 0.677773 0.459778
f 70/88/70 79/89/79 67/90/67
vt 0.674914 0.687648
f 20/62/20 38/91/38 79/89/79
vt 0.485748 0.254952
f 71/64/71 80/92/80 46/18/46
f 74/70/74 80/92/80 71/64/71
vt 0.336809 0.833560
vt 0.336920 0.785916
vt 0.384519 0.726331
f 10/93/10 28/94/28 80/95/80
vt 0.506205 0.350977
vt 0.448079 0.354288
f 28/16/28 81/96/81 32/97/32
vt 0.559475 0.342029
f 53/98/53 81/96/81 28/16/28
vt 0.266533 0.646047
f 53/99/53 21/24/21 51/20/51
vt 0.609960 0.361119
f 40/68/40 82/100/82 53/98/53
vt 0.278588 0.749240
vt 0.320949 0.673747
f 39/101/39 82/22/82 40/102/40
vt 0.218381 0.752553
f 39/101/39 9/103/9 52/23/52
f 52/23/52 83/25/83 54/72/54
vt 0.143231 0.752483
f 9/103/9 27/104/27 83/25/83
vt 0.069266 0.722735
f 27/104/27 2/105/2 42/26/42
vt 0.808347 0.361119
f 35/7/35 84/106/84 49/53/49
vt 0.116225 0.149680
vt 0.046020 0.277128
vt 0.000000 0.241327
f 57/107/57 84/108/84 35/109/35
f 57/107/57 22/33/22 55/28/55
vt 0.056221 0.145884
f 85/31/85 57/107/57 17/110/17
vt 0.187902 0.035191
vt 0.085645 0.065345
f 48/111/48 85/31/85 47/112/47
vt 0.273048 0.064123
f 18/113/18 56/32/56 85/31/85
f 56/32/56 86/34/86 58/74/58
vt 0.316518 0.068429
f 36/114/36 86/34/86 56/32/56
vt 0.336809 0.140426
f 36/114/36 8/115/8 38/35/38
vt 0.340137 0.610197
vt 0.404599 0.713241
f 27/116/27 87/37/87 43/117/43
vt 0.339988 0.536299
vt 0.439840 0.553878
f 9/118/9 61/119/61 87/37/87
f 61/119/61 23/42/23 59/38/59
f 88/40/88 61/119/61 9/118/9
vt 0.429528 0.400325
vt 0.336833 0.476818
f 41/120/41 88/40/88 39/121/39
vt 0.517650 0.412671
f 41/120/41 11/122/11 60/41/60
vt 0.604166 0.482239
f 60/41/60 89/123/89 62/77/62
vt 0.586459 0.423461
f 11/122/11 29/124/29 89/123/89
vt 0.646477 0.441109
vt 0.670954 0.491413
f 29/124/29 5/125/5 47/126/47
vt 0.090851 0.431859
f 30/1/30 90/46/90 45/127/45
vt 0.000000 0.608449
f 12/27/12 65/128/65 90/46/90
vt 0.694133 0.143704
f 65/51/65 24/50/24 63/129/63
vt 0.012308 0.682984
f 91/130/91 65/128/65 12/27/12
vt 0.019832 0.742597
f 43/131/43 91/130/91 42/26/42
vt 0.857058 0.070133
f 13/76/13 64/49/64 91/132/91
vt 0.758736 0.168010
f 64/49/64 92/52/92 66/133/66
f 13/76/13 31/9/31 92/52/92
f 31/9/31 6/8/6 49/53/49
vt 0.408067 0.318081
f 93/134/93 46/18/46 4/17/4
vt 0.232244 0.440506
vt 0.291247 0.454530
vt 0.270084 0.523882
f 69/135/69 93/136/93 32/137/32
vt 0.685316 0.388716
f 25/58/25 67/90/67 93/138/93
vt 0.130148 0.436240
f 44/3/44 94/139/94 69/135/69
f 3/2/3 45/127/45 94/139/94
vt 0.834672 0.401576
f 15/82/15 68/57/68 94/140/94
f 95/60/95 70/88/70 25/58/25
f 33/12/33 95/60/95 68/57/68
f 33/12/33 7/11/7 50/61/50
vt 0.563922 0.000091
f 36/141/36 96/63/96 34/87/34
vt 0.582099 0.007382
vt 0.608937 0.072162
f 18/142/18 73/143/73 96/63/96
f 73/143/73 26/67/26 71/64/71
vt 0.207942 0.000000
vt 0.293309 0.025246
f 48/111/48 97/144/97 73/145/73
vt 0.579472 0.365264
f 5/125/5 29/124/29 97/146/97
vt 0.477201 0.361119
f 29/124/29 11/122/11 72/147/72
vt 0.628288 0.255903
f 72/66/72 98/148/98 74/70/74
vt 0.693981 0.150197
vt 0.693822 0.237100
f 11/149/11 41/150/41 98/148/98
vt 0.668575 0.311882
f 41/150/41 1/151/1 40/68/40
f 75/71/75 30/1/30 44/3/44
f 76/73/76 50/4/50 37/6/37
f 77/75/77 35/7/35 31/9/31
f 78/81/78 37/10/37 33/12/33
f 34/87/34 79/13/79 8/15/8
f 80/92/80 28/16/28 46/18/46
f 32/137/32 81/19/81 14/21/14
f 53/99/53 82/22/82 21/24/21
f 54/72/54 83/25/83 12/27/12
f 84/108/84 55/28/55 49/30/49
f 57/107/57 85/31/85 22/33/22
f 58/74/58 86/34/86 20/36/20
f 43/117/43 87/37/87 13/39/13
f 61/119/61 88/40/88 23/42/23
vt 0.731678 0.707183
f 62/152/62 89/43/89 17/45/17
f 45/127/45 90/46/90 15/48/15
f 91/132/91 64/49/64 65/51/65
f 66/133/66 92/52/92 19/54/19
f 93/134/93 67/55/67 46/18/46
f 94/140/94 68/57/68 69/59/69
f 70/88/70 95/60/95 20/62/20
f 34/87/34 96/63/96 16/56/16
f 73/143/73 97/65/97 26/67/26
f 98/148/98 40/68/40 74/70/74
f 51/20/51 75/71/75 14/21/14
f 51/20/51 21/24/21 75/71/75
f 54/72/54 12/27/12 75/71/75
f 55/28/55 76/73/76 19/29/19
f 55/28/55 22/33/22 76/73/76
f 76/73/76 58/74/58 50/4/50
vt 0.934356 0.187628
f 59/153/59 77/75/77 13/76/13
f 23/42/23 62/77/62 59/38/59
f 62/77/62 17/79/17 77/78/77
vt 0.939564 0.506329
f 63/154/63 78/81/78 15/82/15
vt 0.791426 0.711743
f 63/155/63 24/83/24 78/85/78
vt 1.000000 0.606532
f 66/156/66 19/86/19 78/81/78
f 16/56/16 67/55/67 34/87/34
f 25/58/25 70/88/70 67/90/67
f 70/88/70 20/62/20 79/89/79
f 16/56/16 71/64/71 46/18/46
f 26/67/26 74/70/74 71/64/71
vt 0.387737 0.801509
f 74/157/74 10/93/10 80/95/80
f 4/17/4 28/16/28 32/97/32
f 10/69/10 53/98/53 28/16/28
f 81/19/81 53/99/53 51/20/51
f 10/69/10 40/68/40 53/98/53
vt 0.324683 0.722893
f 1/158/1 39/101/39 40/102/40
f 82/22/82 39/101/39 52/23/52
f 21/24/21 52/23/52 54/72/54
f 52/23/52 9/103/9 83/25/83
f 83/25/83 27/104/27 42/26/42
f 6/8/6 35/7/35 49/53/49
f 17/110/17 57/107/57 35/109/35
f 84/108/84 57/107/57 55/28/55
f 47/112/47 85/31/85 17/110/17
vt 0.116277 0.014773
f 5/159/5 48/111/48 47/112/47
f 48/111/48 18/113/18 85/31/85
f 22/33/22 56/32/56 58/74/58
f 18/113/18 36/114/36 56/32/56
f 86/34/86 36/114/36 38/35/38
vt 0.336809 0.674909
f 2/160/2 27/116/27 43/117/43
f 27/116/27 9/118/9 87/37/87
f 87/37/87 61/119/61 59/38/59
f 39/121/39 88/40/88 9/118/9
vt 0.353162 0.419686
f 1/161/1 41/120/41 39/121/39
f 88/40/88 41/120/41 60/41/60
f 23/42/23 60/41/60 62/77/62
f 60/41/60 11/122/11 89/123/89
f 89/123/89 29/124/29 47/126/47
f 3/2/3 30/1/30 45/127/45
f 30/1/30 12/27/12 90/46/90
vt 0.736508 0.092307
f 90/162/90 65/51/65 63/129/63
f 42/26/42 91/130/91 12/27/12
f 2/105/2 43/131/43 42/26/42
vt 0.913859 0.076969
f 43/163/43 13/76/13 91/132/91
f 24/50/24 64/49/64 66/133/66
f 64/49/64 13/76/13 92/52/92
f 92/52/92 31/9/31 49/53/49
f 32/97/32 93/134/93 4/17/4
f 14/21/14 69/135/69 32/137/32
f 69/59/69 25/58/25 93/138/93
f 14/21/14 44/3/44 69/135/69
f 44/3/44 3/2/3 94/139/94
vt 0.867108 0.417288
f 45/164/45 15/82/15 94/140/94
f 68/57/68 95/60/95 25/58/25
f 15/82/15 33/12/33 68/57/68
f 95/60/95 33/12/33 50/61/50
f 8/15/8 36/141/36 34/87/34
f 36/141/36 18/142/18 96/63/96
f 96/63/96 73/143/73 71/64/71
f 18/113/18 48/111/48 73/145/73
vt 0.639569 0.392860
f 48/165/48 5/125/5 97/146/97
f 97/146/97 29/124/29 72/147/72
f 26/67/26 72/66/72 74/70/74
f 72/66/72 11/149/11 98/148/98
f 98/148/98 41/150/41 40/68/40
# 192 faces, 165 coords texture

# End of File
